<?xml version="1.0" standalone="no"?>
<!DOCTYPE svg PUBLIC "-//W3C//DTD SVG 20010904//EN"
 "http://www.w3.org/TR/2001/REC-SVG-20010904/DTD/svg10.dtd">
<svg version="1.0" xmlns="http://www.w3.org/2000/svg"
 width="512.000000pt" height="512.000000pt" viewBox="0 0 512.000000 512.000000"
 preserveAspectRatio="xMidYMid meet">

<g transform="translate(0.000000,512.000000) scale(0.100000,-0.100000)"
fill="#000000" stroke="none">
<path d="M2515 4041 c-6 -5 -129 -75 -275 -156 -146 -81 -318 -177 -382 -213
-65 -36 -118 -68 -118 -72 0 -4 179 -107 399 -228 l399 -221 248 139 c137 77
269 153 294 169 25 16 88 53 140 81 52 29 96 54 98 55 2 1 -28 20 -65 41 -70
39 -157 55 -146 27 3 -7 1 -13 -5 -13 -5 0 -13 7 -16 16 -5 14 -10 14 -40 -4
-24 -14 -36 -17 -39 -9 -3 8 -11 6 -25 -6 -11 -11 -26 -16 -32 -12 -6 4 -17 2
-25 -5 -9 -7 -15 -8 -20 0 -3 6 -20 7 -38 4 -63 -12 -143 -2 -132 17 4 5 0 6
-8 3 -23 -9 -157 66 -168 93 -5 14 -9 87 -9 164 0 107 -3 139 -13 139 -7 0
-17 -4 -22 -9z"/>
<path d="M3875 3591 c-6 -5 -147 -83 -315 -174 -311 -168 -663 -361 -892 -490
l-128 -72 0 -112 c0 -84 -4 -115 -15 -126 -8 -8 -113 -77 -235 -152 -121 -75
-220 -139 -220 -140 0 -2 49 -79 110 -172 173 -266 313 -483 338 -523 22 -36
22 -45 20 -226 l-3 -189 -111 165 c-120 179 -312 477 -444 688 -46 73 -87 135
-92 138 -5 3 -17 -1 -26 -9 -9 -7 -96 -63 -192 -122 -341 -211 -393 -247 -378
-261 19 -18 293 -164 309 -164 8 0 82 -36 164 -81 206 -111 572 -312 676 -370
48 -27 98 -49 113 -49 27 0 168 67 306 145 41 23 268 144 504 269 235 125 452
243 482 262 l53 34 3 302 c5 472 -2 1438 -11 1438 -4 0 -11 -4 -16 -9z m-269
-843 c-7 -173 -7 -169 -20 -160 -19 11 -80 9 -108 -5 -25 -12 -27 -12 -21 4 6
16 5 16 -10 4 -13 -10 -17 -10 -17 -1 0 10 -3 10 -15 0 -8 -6 -19 -9 -25 -5
-6 4 -19 -4 -30 -17 -14 -18 -18 -19 -16 -6 1 10 43 66 92 125 50 59 107 129
128 156 21 26 41 47 43 47 3 0 3 -64 -1 -142z m-196 -184 c0 -2 -7 -4 -15 -4
-8 0 -15 4 -15 10 0 5 7 7 15 4 8 -4 15 -8 15 -10z m145 6 c-3 -5 -12 -10 -18
-10 -7 0 -6 4 3 10 19 12 23 12 15 0z m-90 -441 c112 -58 134 -74 123 -84 -10
-10 -612 -348 -735 -414 l-23 -12 0 146 0 146 51 32 c29 18 140 82 248 144
108 61 197 112 197 112 1 1 63 -31 139 -70z"/>
<path d="M2312 2923 c-6 -2 -9 -9 -6 -14 9 -16 -15 -37 -36 -32 -11 3 -20 10
-20 15 0 5 -6 8 -12 5 -7 -2 -19 3 -26 12 -8 9 -11 11 -8 5 7 -14 -31 -46 -39
-34 -9 15 -42 12 -49 -5 -5 -15 -37 -22 -35 -7 4 22 -3 22 -22 -2 -21 -26 -49
-35 -49 -15 0 5 5 7 10 4 6 -3 10 -2 10 4 0 13 -33 23 -54 15 -9 -3 -16 -11
-16 -18 0 -18 -109 -14 -120 4 -9 13 -10 13 -11 0 -1 -8 -1 -19 0 -24 1 -5 -9
-2 -23 7 -22 15 -25 15 -30 0 -5 -13 -9 -13 -23 -2 -14 12 -14 9 2 -21 21 -41
155 -250 161 -250 2 0 79 50 171 111 92 61 203 134 245 162 51 33 74 53 66 59
-7 4 -23 5 -35 2 -28 -7 -51 5 -32 17 15 9 2 11 -19 2z m-312 -73 c0 -5 -5
-10 -11 -10 -5 0 -7 5 -4 10 3 6 8 10 11 10 2 0 4 -4 4 -10z"/>
<path d="M1720 2875 c0 -8 7 -15 15 -15 8 0 15 4 15 9 0 5 -7 11 -15 15 -9 3
-15 0 -15 -9z"/>
<path d="M1475 2744 c-8 -9 -22 -14 -29 -11 -8 3 -16 -3 -19 -15 -3 -11 -10
-17 -16 -14 -26 16 -132 23 -178 11 -32 -8 -34 -34 -31 -342 l3 -273 236 154
c130 85 246 159 258 165 12 7 21 16 21 22 0 6 -40 69 -90 140 -142 205 -128
190 -155 163z"/>
</g>
</svg>
