<svg width="849" height="849" viewBox="0 0 849 849" fill="none" xmlns="http://www.w3.org/2000/svg">
<path opacity="0.1" fill-rule="evenodd" clip-rule="evenodd" d="M424.5 847.625C658.185 847.625 847.625 658.185 847.625 424.5C847.625 190.815 658.185 1.375 424.5 1.375C190.815 1.375 1.375 190.815 1.375 424.5C1.375 658.185 190.815 847.625 424.5 847.625ZM424.5 848.875C658.876 848.875 848.875 658.876 848.875 424.5C848.875 190.124 658.876 0.125 424.5 0.125C190.124 0.125 0.125 190.124 0.125 424.5C0.125 658.876 190.124 848.875 424.5 848.875ZM424.5 763C611.448 763 763 611.448 763 424.5C763 237.552 611.448 86 424.5 86C237.552 86 86 237.552 86 424.5C86 611.448 237.552 763 424.5 763ZM424.5 764C612.001 764 764 612.001 764 424.5C764 236.999 612.001 85 424.5 85C236.999 85 85 236.999 85 424.5C85 612.001 236.999 764 424.5 764ZM678.125 424.5C678.125 564.573 564.573 678.125 424.5 678.125C284.427 678.125 170.875 564.573 170.875 424.5C170.875 284.427 284.427 170.875 424.5 170.875C564.573 170.875 678.125 284.427 678.125 424.5ZM679.125 424.5C679.125 565.125 565.125 679.125 424.5 679.125C283.875 679.125 169.875 565.125 169.875 424.5C169.875 283.875 283.875 169.875 424.5 169.875C565.125 169.875 679.125 283.875 679.125 424.5Z" fill="url(#paint0_linear_1_414)"/>
<defs>
<linearGradient id="paint0_linear_1_414" x1="424.5" y1="0.125" x2="424.5" y2="848.875" gradientUnits="userSpaceOnUse">
<stop stop-color="white"/>
<stop offset="1" stop-color="white" stop-opacity="0"/>
</linearGradient>
</defs>
</svg>
